<mxfile host="app.diagrams.net" modified="2023-09-15T19:11:27.898Z" agent="Mozilla/5.0 (Windows NT 10.0; Win64; x64) AppleWebKit/537.36 (KHTML, like Gecko) Chrome/116.0.0.0 Safari/537.36" etag="Y6nfe0DRotXDNq87lqrx" version="21.7.5" type="github">
  <diagram id="C5RBs43oDa-KdzZeNtuy" name="Page-1">
    <mxGraphModel dx="1050" dy="542" grid="1" gridSize="10" guides="1" tooltips="1" connect="1" arrows="1" fold="1" page="1" pageScale="1" pageWidth="827" pageHeight="1169" math="0" shadow="0">
      <root>
        <mxCell id="WIyWlLk6GJQsqaUBKTNV-0" />
        <mxCell id="WIyWlLk6GJQsqaUBKTNV-1" parent="WIyWlLk6GJQsqaUBKTNV-0" />
        <mxCell id="9mdw5v8eH_0LLjEjA2_W-0" value="HOME" style="rounded=0;whiteSpace=wrap;html=1;" vertex="1" parent="WIyWlLk6GJQsqaUBKTNV-1">
          <mxGeometry y="20" width="80" height="20" as="geometry" />
        </mxCell>
        <mxCell id="9mdw5v8eH_0LLjEjA2_W-18" style="edgeStyle=orthogonalEdgeStyle;rounded=0;orthogonalLoop=1;jettySize=auto;html=1;" edge="1" parent="WIyWlLk6GJQsqaUBKTNV-1" source="9mdw5v8eH_0LLjEjA2_W-2">
          <mxGeometry relative="1" as="geometry">
            <mxPoint x="60" y="712.800048828125" as="targetPoint" />
          </mxGeometry>
        </mxCell>
        <mxCell id="9mdw5v8eH_0LLjEjA2_W-2" value="&lt;font style=&quot;font-size: 9px;&quot;&gt;SWIMMING GEAR&lt;/font&gt;" style="rounded=0;whiteSpace=wrap;html=1;" vertex="1" parent="WIyWlLk6GJQsqaUBKTNV-1">
          <mxGeometry x="120" y="40" width="80" height="20" as="geometry" />
        </mxCell>
        <mxCell id="9mdw5v8eH_0LLjEjA2_W-53" style="edgeStyle=orthogonalEdgeStyle;rounded=0;orthogonalLoop=1;jettySize=auto;html=1;" edge="1" parent="WIyWlLk6GJQsqaUBKTNV-1" source="9mdw5v8eH_0LLjEjA2_W-3">
          <mxGeometry relative="1" as="geometry">
            <mxPoint x="200" y="1020" as="targetPoint" />
          </mxGeometry>
        </mxCell>
        <mxCell id="9mdw5v8eH_0LLjEjA2_W-3" value="&lt;font style=&quot;font-size: 11px;&quot;&gt;DIVING GEAR&lt;/font&gt;" style="rounded=0;whiteSpace=wrap;html=1;" vertex="1" parent="WIyWlLk6GJQsqaUBKTNV-1">
          <mxGeometry x="220" y="40" width="80" height="20" as="geometry" />
        </mxCell>
        <mxCell id="9mdw5v8eH_0LLjEjA2_W-92" style="edgeStyle=orthogonalEdgeStyle;rounded=0;orthogonalLoop=1;jettySize=auto;html=1;exitX=0.59;exitY=1.06;exitDx=0;exitDy=0;exitPerimeter=0;" edge="1" parent="WIyWlLk6GJQsqaUBKTNV-1" source="9mdw5v8eH_0LLjEjA2_W-4">
          <mxGeometry relative="1" as="geometry">
            <mxPoint x="345" y="1125.7999755859375" as="targetPoint" />
            <mxPoint x="355" y="74.2" as="sourcePoint" />
            <Array as="points">
              <mxPoint x="357" y="74" />
              <mxPoint x="335" y="74" />
              <mxPoint x="335" y="601" />
              <mxPoint x="346" y="601" />
            </Array>
          </mxGeometry>
        </mxCell>
        <mxCell id="9mdw5v8eH_0LLjEjA2_W-4" value="&lt;font style=&quot;font-size: 6px;&quot;&gt;KAYAKING &amp;amp; CANOEING GEAR&lt;/font&gt;" style="rounded=0;whiteSpace=wrap;html=1;" vertex="1" parent="WIyWlLk6GJQsqaUBKTNV-1">
          <mxGeometry x="310" y="40" width="80" height="20" as="geometry" />
        </mxCell>
        <mxCell id="9mdw5v8eH_0LLjEjA2_W-5" value="&lt;font style=&quot;font-size: 10px;&quot;&gt;SURFING GEAR&lt;/font&gt;" style="rounded=0;whiteSpace=wrap;html=1;" vertex="1" parent="WIyWlLk6GJQsqaUBKTNV-1">
          <mxGeometry x="400" y="40" width="80" height="20" as="geometry" />
        </mxCell>
        <mxCell id="9mdw5v8eH_0LLjEjA2_W-6" value="" style="rounded=0;whiteSpace=wrap;html=1;movable=0;resizable=0;rotatable=0;deletable=0;editable=0;locked=1;connectable=0;" vertex="1" parent="WIyWlLk6GJQsqaUBKTNV-1">
          <mxGeometry x="410" y="50" width="80" as="geometry" />
        </mxCell>
        <mxCell id="9mdw5v8eH_0LLjEjA2_W-7" value="" style="rounded=0;whiteSpace=wrap;html=1;" vertex="1" parent="WIyWlLk6GJQsqaUBKTNV-1">
          <mxGeometry x="420" y="60" width="80" as="geometry" />
        </mxCell>
        <mxCell id="9mdw5v8eH_0LLjEjA2_W-8" value="" style="rounded=0;whiteSpace=wrap;html=1;" vertex="1" parent="WIyWlLk6GJQsqaUBKTNV-1">
          <mxGeometry x="490" y="60" width="10" as="geometry" />
        </mxCell>
        <mxCell id="9mdw5v8eH_0LLjEjA2_W-9" value="&lt;font style=&quot;font-size: 8px;&quot;&gt;BOATING &amp;amp; SAILING&lt;/font&gt;" style="rounded=0;whiteSpace=wrap;html=1;" vertex="1" parent="WIyWlLk6GJQsqaUBKTNV-1">
          <mxGeometry x="490" y="40" width="80" height="20" as="geometry" />
        </mxCell>
        <mxCell id="9mdw5v8eH_0LLjEjA2_W-10" value="&lt;font style=&quot;font-size: 10px;&quot;&gt;FISHING GEAR&lt;/font&gt;" style="rounded=0;whiteSpace=wrap;html=1;" vertex="1" parent="WIyWlLk6GJQsqaUBKTNV-1">
          <mxGeometry x="580" y="40" width="80" height="20" as="geometry" />
        </mxCell>
        <mxCell id="9mdw5v8eH_0LLjEjA2_W-11" value="&lt;font style=&quot;font-size: 10px;&quot;&gt;WATER SPORT ACCESSORIES&lt;/font&gt;" style="rounded=0;whiteSpace=wrap;html=1;" vertex="1" parent="WIyWlLk6GJQsqaUBKTNV-1">
          <mxGeometry x="670" y="40" width="80" height="20" as="geometry" />
        </mxCell>
        <mxCell id="9mdw5v8eH_0LLjEjA2_W-12" value="&lt;font style=&quot;font-size: 9px;&quot;&gt;MAINTENANCE &amp;amp; CARE&lt;/font&gt;" style="rounded=0;whiteSpace=wrap;html=1;" vertex="1" parent="WIyWlLk6GJQsqaUBKTNV-1">
          <mxGeometry x="760" y="40" width="80" height="20" as="geometry" />
        </mxCell>
        <mxCell id="9mdw5v8eH_0LLjEjA2_W-13" value="&lt;font style=&quot;font-size: 9px;&quot;&gt;BUYING GUIDES&lt;/font&gt;" style="rounded=0;whiteSpace=wrap;html=1;" vertex="1" parent="WIyWlLk6GJQsqaUBKTNV-1">
          <mxGeometry x="850" y="40" width="80" height="20" as="geometry" />
        </mxCell>
        <mxCell id="9mdw5v8eH_0LLjEjA2_W-14" value="&lt;font style=&quot;font-size: 8px;&quot;&gt;TIPS &amp;amp;TECHNIQUES&lt;/font&gt;" style="rounded=0;whiteSpace=wrap;html=1;" vertex="1" parent="WIyWlLk6GJQsqaUBKTNV-1">
          <mxGeometry x="950" y="40" width="80" height="20" as="geometry" />
        </mxCell>
        <mxCell id="9mdw5v8eH_0LLjEjA2_W-15" value="SAFETY &amp;amp; TRAINING" style="rounded=0;whiteSpace=wrap;html=1;" vertex="1" parent="WIyWlLk6GJQsqaUBKTNV-1">
          <mxGeometry x="1050" y="40" width="80" height="20" as="geometry" />
        </mxCell>
        <mxCell id="9mdw5v8eH_0LLjEjA2_W-17" value="&lt;font style=&quot;font-size: 7px;&quot;&gt;FEATURED BRANDS&lt;/font&gt;" style="rounded=0;whiteSpace=wrap;html=1;" vertex="1" parent="WIyWlLk6GJQsqaUBKTNV-1">
          <mxGeometry x="1150" y="40" width="80" height="20" as="geometry" />
        </mxCell>
        <mxCell id="9mdw5v8eH_0LLjEjA2_W-19" value="" style="endArrow=classic;html=1;rounded=0;" edge="1" parent="WIyWlLk6GJQsqaUBKTNV-1">
          <mxGeometry width="50" height="50" relative="1" as="geometry">
            <mxPoint x="60" y="90" as="sourcePoint" />
            <mxPoint x="90" y="90" as="targetPoint" />
          </mxGeometry>
        </mxCell>
        <mxCell id="9mdw5v8eH_0LLjEjA2_W-20" value="" style="endArrow=classic;html=1;rounded=0;" edge="1" parent="WIyWlLk6GJQsqaUBKTNV-1">
          <mxGeometry width="50" height="50" relative="1" as="geometry">
            <mxPoint x="60" y="120" as="sourcePoint" />
            <mxPoint x="90" y="120" as="targetPoint" />
          </mxGeometry>
        </mxCell>
        <mxCell id="9mdw5v8eH_0LLjEjA2_W-21" value="" style="endArrow=classic;html=1;rounded=0;" edge="1" parent="WIyWlLk6GJQsqaUBKTNV-1">
          <mxGeometry width="50" height="50" relative="1" as="geometry">
            <mxPoint x="60" y="200" as="sourcePoint" />
            <mxPoint x="90" y="200" as="targetPoint" />
          </mxGeometry>
        </mxCell>
        <mxCell id="9mdw5v8eH_0LLjEjA2_W-22" value="" style="endArrow=classic;html=1;rounded=0;" edge="1" parent="WIyWlLk6GJQsqaUBKTNV-1">
          <mxGeometry width="50" height="50" relative="1" as="geometry">
            <mxPoint x="60" y="240" as="sourcePoint" />
            <mxPoint x="90" y="240" as="targetPoint" />
          </mxGeometry>
        </mxCell>
        <mxCell id="9mdw5v8eH_0LLjEjA2_W-23" value="" style="endArrow=classic;html=1;rounded=0;" edge="1" parent="WIyWlLk6GJQsqaUBKTNV-1">
          <mxGeometry width="50" height="50" relative="1" as="geometry">
            <mxPoint x="60" y="160" as="sourcePoint" />
            <mxPoint x="90" y="160" as="targetPoint" />
          </mxGeometry>
        </mxCell>
        <mxCell id="9mdw5v8eH_0LLjEjA2_W-25" value="" style="endArrow=classic;html=1;rounded=0;" edge="1" parent="WIyWlLk6GJQsqaUBKTNV-1">
          <mxGeometry width="50" height="50" relative="1" as="geometry">
            <mxPoint x="60" y="280" as="sourcePoint" />
            <mxPoint x="90" y="280" as="targetPoint" />
          </mxGeometry>
        </mxCell>
        <mxCell id="9mdw5v8eH_0LLjEjA2_W-26" value="" style="endArrow=classic;html=1;rounded=0;" edge="1" parent="WIyWlLk6GJQsqaUBKTNV-1">
          <mxGeometry width="50" height="50" relative="1" as="geometry">
            <mxPoint x="60" y="400" as="sourcePoint" />
            <mxPoint x="90" y="400" as="targetPoint" />
          </mxGeometry>
        </mxCell>
        <mxCell id="9mdw5v8eH_0LLjEjA2_W-27" value="" style="endArrow=classic;html=1;rounded=0;" edge="1" parent="WIyWlLk6GJQsqaUBKTNV-1">
          <mxGeometry width="50" height="50" relative="1" as="geometry">
            <mxPoint x="60" y="360" as="sourcePoint" />
            <mxPoint x="90" y="360" as="targetPoint" />
          </mxGeometry>
        </mxCell>
        <mxCell id="9mdw5v8eH_0LLjEjA2_W-28" value="" style="endArrow=classic;html=1;rounded=0;" edge="1" parent="WIyWlLk6GJQsqaUBKTNV-1">
          <mxGeometry width="50" height="50" relative="1" as="geometry">
            <mxPoint x="60" y="320" as="sourcePoint" />
            <mxPoint x="90" y="320" as="targetPoint" />
          </mxGeometry>
        </mxCell>
        <mxCell id="9mdw5v8eH_0LLjEjA2_W-29" value="" style="endArrow=classic;html=1;rounded=0;" edge="1" parent="WIyWlLk6GJQsqaUBKTNV-1">
          <mxGeometry width="50" height="50" relative="1" as="geometry">
            <mxPoint x="60" y="440" as="sourcePoint" />
            <mxPoint x="90" y="440" as="targetPoint" />
          </mxGeometry>
        </mxCell>
        <mxCell id="9mdw5v8eH_0LLjEjA2_W-30" value="" style="endArrow=classic;html=1;rounded=0;" edge="1" parent="WIyWlLk6GJQsqaUBKTNV-1">
          <mxGeometry width="50" height="50" relative="1" as="geometry">
            <mxPoint x="60" y="480" as="sourcePoint" />
            <mxPoint x="90" y="480" as="targetPoint" />
          </mxGeometry>
        </mxCell>
        <mxCell id="9mdw5v8eH_0LLjEjA2_W-31" value="swim wear" style="rounded=0;whiteSpace=wrap;html=1;" vertex="1" parent="WIyWlLk6GJQsqaUBKTNV-1">
          <mxGeometry x="90" y="80" width="80" height="20" as="geometry" />
        </mxCell>
        <mxCell id="9mdw5v8eH_0LLjEjA2_W-34" value="&lt;font style=&quot;font-size: 9px;&quot;&gt;swim accessories&lt;/font&gt;" style="rounded=0;whiteSpace=wrap;html=1;" vertex="1" parent="WIyWlLk6GJQsqaUBKTNV-1">
          <mxGeometry x="90" y="110" width="80" height="20" as="geometry" />
        </mxCell>
        <mxCell id="9mdw5v8eH_0LLjEjA2_W-35" value="swim training gear" style="rounded=0;whiteSpace=wrap;html=1;" vertex="1" parent="WIyWlLk6GJQsqaUBKTNV-1">
          <mxGeometry x="90" y="150" width="80" height="20" as="geometry" />
        </mxCell>
        <mxCell id="9mdw5v8eH_0LLjEjA2_W-36" value="swim safety gear" style="rounded=0;whiteSpace=wrap;html=1;" vertex="1" parent="WIyWlLk6GJQsqaUBKTNV-1">
          <mxGeometry x="90" y="190" width="80" height="20" as="geometry" />
        </mxCell>
        <mxCell id="9mdw5v8eH_0LLjEjA2_W-37" value="&lt;font style=&quot;font-size: 10px;&quot;&gt;competition swim gear&lt;/font&gt;" style="rounded=0;whiteSpace=wrap;html=1;" vertex="1" parent="WIyWlLk6GJQsqaUBKTNV-1">
          <mxGeometry x="90" y="230" width="80" height="20" as="geometry" />
        </mxCell>
        <mxCell id="9mdw5v8eH_0LLjEjA2_W-38" value="&lt;font style=&quot;font-size: 9px;&quot;&gt;swim training aids&lt;/font&gt;" style="rounded=0;whiteSpace=wrap;html=1;" vertex="1" parent="WIyWlLk6GJQsqaUBKTNV-1">
          <mxGeometry x="90" y="270" width="80" height="20" as="geometry" />
        </mxCell>
        <mxCell id="9mdw5v8eH_0LLjEjA2_W-39" value="&lt;font style=&quot;font-size: 9px;&quot;&gt;swimming footwear&lt;/font&gt;" style="rounded=0;whiteSpace=wrap;html=1;" vertex="1" parent="WIyWlLk6GJQsqaUBKTNV-1">
          <mxGeometry x="90" y="310" width="80" height="20" as="geometry" />
        </mxCell>
        <mxCell id="9mdw5v8eH_0LLjEjA2_W-40" value="&lt;font style=&quot;font-size: 9px;&quot;&gt;swimming bags&amp;amp; accessories&lt;/font&gt;" style="rounded=0;whiteSpace=wrap;html=1;" vertex="1" parent="WIyWlLk6GJQsqaUBKTNV-1">
          <mxGeometry x="90" y="350" width="80" height="20" as="geometry" />
        </mxCell>
        <mxCell id="9mdw5v8eH_0LLjEjA2_W-41" value="hydration gear" style="rounded=0;whiteSpace=wrap;html=1;" vertex="1" parent="WIyWlLk6GJQsqaUBKTNV-1">
          <mxGeometry x="90" y="390" width="80" height="20" as="geometry" />
        </mxCell>
        <mxCell id="9mdw5v8eH_0LLjEjA2_W-43" value="&lt;font style=&quot;font-size: 11px;&quot;&gt;pool equipment&lt;/font&gt;" style="rounded=0;whiteSpace=wrap;html=1;" vertex="1" parent="WIyWlLk6GJQsqaUBKTNV-1">
          <mxGeometry x="90" y="430" width="80" height="20" as="geometry" />
        </mxCell>
        <mxCell id="9mdw5v8eH_0LLjEjA2_W-44" value="swim apparel" style="rounded=0;whiteSpace=wrap;html=1;" vertex="1" parent="WIyWlLk6GJQsqaUBKTNV-1">
          <mxGeometry x="90" y="470" width="80" height="20" as="geometry" />
        </mxCell>
        <mxCell id="9mdw5v8eH_0LLjEjA2_W-45" value="" style="endArrow=classic;html=1;rounded=0;" edge="1" parent="WIyWlLk6GJQsqaUBKTNV-1">
          <mxGeometry width="50" height="50" relative="1" as="geometry">
            <mxPoint x="200" y="679.5" as="sourcePoint" />
            <mxPoint x="230" y="679.5" as="targetPoint" />
          </mxGeometry>
        </mxCell>
        <mxCell id="9mdw5v8eH_0LLjEjA2_W-46" value="" style="endArrow=classic;html=1;rounded=0;" edge="1" parent="WIyWlLk6GJQsqaUBKTNV-1">
          <mxGeometry width="50" height="50" relative="1" as="geometry">
            <mxPoint x="200" y="759.5" as="sourcePoint" />
            <mxPoint x="230" y="759.5" as="targetPoint" />
          </mxGeometry>
        </mxCell>
        <mxCell id="9mdw5v8eH_0LLjEjA2_W-47" value="" style="endArrow=classic;html=1;rounded=0;" edge="1" parent="WIyWlLk6GJQsqaUBKTNV-1">
          <mxGeometry width="50" height="50" relative="1" as="geometry">
            <mxPoint x="200" y="719.5" as="sourcePoint" />
            <mxPoint x="230" y="719.5" as="targetPoint" />
          </mxGeometry>
        </mxCell>
        <mxCell id="9mdw5v8eH_0LLjEjA2_W-48" value="maintenace &amp;amp;care" style="rounded=0;whiteSpace=wrap;html=1;" vertex="1" parent="WIyWlLk6GJQsqaUBKTNV-1">
          <mxGeometry x="230" y="750" width="80" height="20" as="geometry" />
        </mxCell>
        <mxCell id="9mdw5v8eH_0LLjEjA2_W-49" value="dive accesories" style="rounded=0;whiteSpace=wrap;html=1;" vertex="1" parent="WIyWlLk6GJQsqaUBKTNV-1">
          <mxGeometry x="230" y="710" width="80" height="20" as="geometry" />
        </mxCell>
        <mxCell id="9mdw5v8eH_0LLjEjA2_W-50" value="dive bags" style="rounded=0;whiteSpace=wrap;html=1;" vertex="1" parent="WIyWlLk6GJQsqaUBKTNV-1">
          <mxGeometry x="230" y="670" width="80" height="20" as="geometry" />
        </mxCell>
        <mxCell id="9mdw5v8eH_0LLjEjA2_W-54" value="" style="endArrow=classic;html=1;rounded=0;" edge="1" parent="WIyWlLk6GJQsqaUBKTNV-1">
          <mxGeometry width="50" height="50" relative="1" as="geometry">
            <mxPoint x="200" y="130" as="sourcePoint" />
            <mxPoint x="230" y="130" as="targetPoint" />
          </mxGeometry>
        </mxCell>
        <mxCell id="9mdw5v8eH_0LLjEjA2_W-55" value="" style="endArrow=classic;html=1;rounded=0;" edge="1" parent="WIyWlLk6GJQsqaUBKTNV-1">
          <mxGeometry width="50" height="50" relative="1" as="geometry">
            <mxPoint x="200" y="160" as="sourcePoint" />
            <mxPoint x="230" y="160" as="targetPoint" />
          </mxGeometry>
        </mxCell>
        <mxCell id="9mdw5v8eH_0LLjEjA2_W-56" value="" style="endArrow=classic;html=1;rounded=0;" edge="1" parent="WIyWlLk6GJQsqaUBKTNV-1">
          <mxGeometry width="50" height="50" relative="1" as="geometry">
            <mxPoint x="200" y="240" as="sourcePoint" />
            <mxPoint x="230" y="240" as="targetPoint" />
          </mxGeometry>
        </mxCell>
        <mxCell id="9mdw5v8eH_0LLjEjA2_W-57" value="" style="endArrow=classic;html=1;rounded=0;" edge="1" parent="WIyWlLk6GJQsqaUBKTNV-1">
          <mxGeometry width="50" height="50" relative="1" as="geometry">
            <mxPoint x="200" y="280" as="sourcePoint" />
            <mxPoint x="230" y="280" as="targetPoint" />
          </mxGeometry>
        </mxCell>
        <mxCell id="9mdw5v8eH_0LLjEjA2_W-58" value="" style="endArrow=classic;html=1;rounded=0;" edge="1" parent="WIyWlLk6GJQsqaUBKTNV-1">
          <mxGeometry width="50" height="50" relative="1" as="geometry">
            <mxPoint x="200" y="200" as="sourcePoint" />
            <mxPoint x="230" y="200" as="targetPoint" />
          </mxGeometry>
        </mxCell>
        <mxCell id="9mdw5v8eH_0LLjEjA2_W-59" value="" style="endArrow=classic;html=1;rounded=0;" edge="1" parent="WIyWlLk6GJQsqaUBKTNV-1">
          <mxGeometry width="50" height="50" relative="1" as="geometry">
            <mxPoint x="200" y="320" as="sourcePoint" />
            <mxPoint x="230" y="320" as="targetPoint" />
          </mxGeometry>
        </mxCell>
        <mxCell id="9mdw5v8eH_0LLjEjA2_W-60" value="" style="endArrow=classic;html=1;rounded=0;" edge="1" parent="WIyWlLk6GJQsqaUBKTNV-1">
          <mxGeometry width="50" height="50" relative="1" as="geometry">
            <mxPoint x="200" y="440" as="sourcePoint" />
            <mxPoint x="230" y="440" as="targetPoint" />
          </mxGeometry>
        </mxCell>
        <mxCell id="9mdw5v8eH_0LLjEjA2_W-61" value="" style="endArrow=classic;html=1;rounded=0;" edge="1" parent="WIyWlLk6GJQsqaUBKTNV-1">
          <mxGeometry width="50" height="50" relative="1" as="geometry">
            <mxPoint x="200" y="400" as="sourcePoint" />
            <mxPoint x="230" y="400" as="targetPoint" />
          </mxGeometry>
        </mxCell>
        <mxCell id="9mdw5v8eH_0LLjEjA2_W-62" value="" style="endArrow=classic;html=1;rounded=0;" edge="1" parent="WIyWlLk6GJQsqaUBKTNV-1">
          <mxGeometry width="50" height="50" relative="1" as="geometry">
            <mxPoint x="200" y="360" as="sourcePoint" />
            <mxPoint x="230" y="360" as="targetPoint" />
          </mxGeometry>
        </mxCell>
        <mxCell id="9mdw5v8eH_0LLjEjA2_W-63" value="" style="endArrow=classic;html=1;rounded=0;" edge="1" parent="WIyWlLk6GJQsqaUBKTNV-1">
          <mxGeometry width="50" height="50" relative="1" as="geometry">
            <mxPoint x="200" y="480" as="sourcePoint" />
            <mxPoint x="230" y="480" as="targetPoint" />
          </mxGeometry>
        </mxCell>
        <mxCell id="9mdw5v8eH_0LLjEjA2_W-64" value="" style="endArrow=classic;html=1;rounded=0;" edge="1" parent="WIyWlLk6GJQsqaUBKTNV-1">
          <mxGeometry width="50" height="50" relative="1" as="geometry">
            <mxPoint x="200" y="520" as="sourcePoint" />
            <mxPoint x="230" y="520" as="targetPoint" />
          </mxGeometry>
        </mxCell>
        <mxCell id="9mdw5v8eH_0LLjEjA2_W-65" value="wetsuits" style="rounded=0;whiteSpace=wrap;html=1;" vertex="1" parent="WIyWlLk6GJQsqaUBKTNV-1">
          <mxGeometry x="230" y="120" width="80" height="20" as="geometry" />
        </mxCell>
        <mxCell id="9mdw5v8eH_0LLjEjA2_W-66" value="drysuits" style="rounded=0;whiteSpace=wrap;html=1;" vertex="1" parent="WIyWlLk6GJQsqaUBKTNV-1">
          <mxGeometry x="230" y="150" width="80" height="20" as="geometry" />
        </mxCell>
        <mxCell id="9mdw5v8eH_0LLjEjA2_W-67" value="dive masks" style="rounded=0;whiteSpace=wrap;html=1;" vertex="1" parent="WIyWlLk6GJQsqaUBKTNV-1">
          <mxGeometry x="230" y="190" width="80" height="20" as="geometry" />
        </mxCell>
        <mxCell id="9mdw5v8eH_0LLjEjA2_W-68" value="snorkels" style="rounded=0;whiteSpace=wrap;html=1;" vertex="1" parent="WIyWlLk6GJQsqaUBKTNV-1">
          <mxGeometry x="230" y="230" width="80" height="20" as="geometry" />
        </mxCell>
        <mxCell id="9mdw5v8eH_0LLjEjA2_W-69" value="regulators" style="rounded=0;whiteSpace=wrap;html=1;" vertex="1" parent="WIyWlLk6GJQsqaUBKTNV-1">
          <mxGeometry x="230" y="270" width="80" height="20" as="geometry" />
        </mxCell>
        <mxCell id="9mdw5v8eH_0LLjEjA2_W-70" value="&lt;font style=&quot;font-size: 9px;&quot;&gt;buoyancy compensators&lt;/font&gt;" style="rounded=0;whiteSpace=wrap;html=1;" vertex="1" parent="WIyWlLk6GJQsqaUBKTNV-1">
          <mxGeometry x="230" y="310" width="80" height="20" as="geometry" />
        </mxCell>
        <mxCell id="9mdw5v8eH_0LLjEjA2_W-71" value="dive computers" style="rounded=0;whiteSpace=wrap;html=1;" vertex="1" parent="WIyWlLk6GJQsqaUBKTNV-1">
          <mxGeometry x="230" y="350" width="80" height="20" as="geometry" />
        </mxCell>
        <mxCell id="9mdw5v8eH_0LLjEjA2_W-72" value="dive gauges" style="rounded=0;whiteSpace=wrap;html=1;" vertex="1" parent="WIyWlLk6GJQsqaUBKTNV-1">
          <mxGeometry x="230" y="390" width="80" height="20" as="geometry" />
        </mxCell>
        <mxCell id="9mdw5v8eH_0LLjEjA2_W-73" value="fins" style="rounded=0;whiteSpace=wrap;html=1;" vertex="1" parent="WIyWlLk6GJQsqaUBKTNV-1">
          <mxGeometry x="230" y="430" width="80" height="20" as="geometry" />
        </mxCell>
        <mxCell id="9mdw5v8eH_0LLjEjA2_W-74" value="dive boots" style="rounded=0;whiteSpace=wrap;html=1;" vertex="1" parent="WIyWlLk6GJQsqaUBKTNV-1">
          <mxGeometry x="230" y="470" width="80" height="20" as="geometry" />
        </mxCell>
        <mxCell id="9mdw5v8eH_0LLjEjA2_W-75" value="dive gloves" style="rounded=0;whiteSpace=wrap;html=1;" vertex="1" parent="WIyWlLk6GJQsqaUBKTNV-1">
          <mxGeometry x="230" y="510" width="80" height="20" as="geometry" />
        </mxCell>
        <mxCell id="9mdw5v8eH_0LLjEjA2_W-76" value="" style="endArrow=classic;html=1;rounded=0;" edge="1" parent="WIyWlLk6GJQsqaUBKTNV-1">
          <mxGeometry width="50" height="50" relative="1" as="geometry">
            <mxPoint x="200" y="560" as="sourcePoint" />
            <mxPoint x="230" y="560" as="targetPoint" />
          </mxGeometry>
        </mxCell>
        <mxCell id="9mdw5v8eH_0LLjEjA2_W-77" value="" style="endArrow=classic;html=1;rounded=0;" edge="1" parent="WIyWlLk6GJQsqaUBKTNV-1">
          <mxGeometry width="50" height="50" relative="1" as="geometry">
            <mxPoint x="200" y="640" as="sourcePoint" />
            <mxPoint x="230" y="640" as="targetPoint" />
          </mxGeometry>
        </mxCell>
        <mxCell id="9mdw5v8eH_0LLjEjA2_W-78" value="" style="endArrow=classic;html=1;rounded=0;" edge="1" parent="WIyWlLk6GJQsqaUBKTNV-1">
          <mxGeometry width="50" height="50" relative="1" as="geometry">
            <mxPoint x="200" y="600" as="sourcePoint" />
            <mxPoint x="230" y="600" as="targetPoint" />
          </mxGeometry>
        </mxCell>
        <mxCell id="9mdw5v8eH_0LLjEjA2_W-79" value="dive hoods" style="rounded=0;whiteSpace=wrap;html=1;" vertex="1" parent="WIyWlLk6GJQsqaUBKTNV-1">
          <mxGeometry x="230" y="550" width="80" height="20" as="geometry" />
        </mxCell>
        <mxCell id="9mdw5v8eH_0LLjEjA2_W-80" value="dive lights" style="rounded=0;whiteSpace=wrap;html=1;" vertex="1" parent="WIyWlLk6GJQsqaUBKTNV-1">
          <mxGeometry x="230" y="590" width="80" height="20" as="geometry" />
        </mxCell>
        <mxCell id="9mdw5v8eH_0LLjEjA2_W-81" value="dive knives" style="rounded=0;whiteSpace=wrap;html=1;" vertex="1" parent="WIyWlLk6GJQsqaUBKTNV-1">
          <mxGeometry x="230" y="630" width="80" height="20" as="geometry" />
        </mxCell>
        <mxCell id="9mdw5v8eH_0LLjEjA2_W-83" value="buying guides" style="rounded=0;whiteSpace=wrap;html=1;" vertex="1" parent="WIyWlLk6GJQsqaUBKTNV-1">
          <mxGeometry x="230" y="790" width="80" height="20" as="geometry" />
        </mxCell>
        <mxCell id="9mdw5v8eH_0LLjEjA2_W-84" value="tips &amp;amp; techniques" style="rounded=0;whiteSpace=wrap;html=1;" vertex="1" parent="WIyWlLk6GJQsqaUBKTNV-1">
          <mxGeometry x="230" y="840" width="80" height="20" as="geometry" />
        </mxCell>
        <mxCell id="9mdw5v8eH_0LLjEjA2_W-85" value="safety &amp;amp; training" style="rounded=0;whiteSpace=wrap;html=1;" vertex="1" parent="WIyWlLk6GJQsqaUBKTNV-1">
          <mxGeometry x="230" y="890" width="80" height="20" as="geometry" />
        </mxCell>
        <mxCell id="9mdw5v8eH_0LLjEjA2_W-86" value="featured brands" style="rounded=0;whiteSpace=wrap;html=1;" vertex="1" parent="WIyWlLk6GJQsqaUBKTNV-1">
          <mxGeometry x="230" y="940" width="80" height="20" as="geometry" />
        </mxCell>
        <mxCell id="9mdw5v8eH_0LLjEjA2_W-88" value="" style="endArrow=classic;html=1;rounded=0;" edge="1" parent="WIyWlLk6GJQsqaUBKTNV-1">
          <mxGeometry width="50" height="50" relative="1" as="geometry">
            <mxPoint x="200" y="799.5" as="sourcePoint" />
            <mxPoint x="230" y="799.5" as="targetPoint" />
          </mxGeometry>
        </mxCell>
        <mxCell id="9mdw5v8eH_0LLjEjA2_W-89" value="" style="endArrow=classic;html=1;rounded=0;" edge="1" parent="WIyWlLk6GJQsqaUBKTNV-1">
          <mxGeometry width="50" height="50" relative="1" as="geometry">
            <mxPoint x="200" y="849.5" as="sourcePoint" />
            <mxPoint x="230" y="849.5" as="targetPoint" />
          </mxGeometry>
        </mxCell>
        <mxCell id="9mdw5v8eH_0LLjEjA2_W-90" value="" style="endArrow=classic;html=1;rounded=0;" edge="1" parent="WIyWlLk6GJQsqaUBKTNV-1">
          <mxGeometry width="50" height="50" relative="1" as="geometry">
            <mxPoint x="200" y="899.5" as="sourcePoint" />
            <mxPoint x="230" y="899.5" as="targetPoint" />
          </mxGeometry>
        </mxCell>
        <mxCell id="9mdw5v8eH_0LLjEjA2_W-91" value="" style="endArrow=classic;html=1;rounded=0;" edge="1" parent="WIyWlLk6GJQsqaUBKTNV-1">
          <mxGeometry width="50" height="50" relative="1" as="geometry">
            <mxPoint x="200" y="949.5" as="sourcePoint" />
            <mxPoint x="230" y="949.5" as="targetPoint" />
          </mxGeometry>
        </mxCell>
        <mxCell id="9mdw5v8eH_0LLjEjA2_W-115" value="" style="endArrow=classic;html=1;rounded=0;" edge="1" parent="WIyWlLk6GJQsqaUBKTNV-1">
          <mxGeometry width="50" height="50" relative="1" as="geometry">
            <mxPoint x="330" y="659.5" as="sourcePoint" />
            <mxPoint x="360" y="659.5" as="targetPoint" />
          </mxGeometry>
        </mxCell>
        <mxCell id="9mdw5v8eH_0LLjEjA2_W-116" value="" style="endArrow=classic;html=1;rounded=0;" edge="1" parent="WIyWlLk6GJQsqaUBKTNV-1">
          <mxGeometry width="50" height="50" relative="1" as="geometry">
            <mxPoint x="330" y="739.5" as="sourcePoint" />
            <mxPoint x="360" y="739.5" as="targetPoint" />
          </mxGeometry>
        </mxCell>
        <mxCell id="9mdw5v8eH_0LLjEjA2_W-117" value="" style="endArrow=classic;html=1;rounded=0;" edge="1" parent="WIyWlLk6GJQsqaUBKTNV-1">
          <mxGeometry width="50" height="50" relative="1" as="geometry">
            <mxPoint x="330" y="699.5" as="sourcePoint" />
            <mxPoint x="360" y="699.5" as="targetPoint" />
          </mxGeometry>
        </mxCell>
        <mxCell id="9mdw5v8eH_0LLjEjA2_W-118" value="" style="rounded=0;whiteSpace=wrap;html=1;" vertex="1" parent="WIyWlLk6GJQsqaUBKTNV-1">
          <mxGeometry x="360" y="730" width="80" height="20" as="geometry" />
        </mxCell>
        <mxCell id="9mdw5v8eH_0LLjEjA2_W-119" value="" style="rounded=0;whiteSpace=wrap;html=1;" vertex="1" parent="WIyWlLk6GJQsqaUBKTNV-1">
          <mxGeometry x="360" y="690" width="80" height="20" as="geometry" />
        </mxCell>
        <mxCell id="9mdw5v8eH_0LLjEjA2_W-120" value="" style="rounded=0;whiteSpace=wrap;html=1;" vertex="1" parent="WIyWlLk6GJQsqaUBKTNV-1">
          <mxGeometry x="360" y="650" width="80" height="20" as="geometry" />
        </mxCell>
        <mxCell id="9mdw5v8eH_0LLjEjA2_W-121" value="" style="endArrow=classic;html=1;rounded=0;" edge="1" parent="WIyWlLk6GJQsqaUBKTNV-1">
          <mxGeometry width="50" height="50" relative="1" as="geometry">
            <mxPoint x="330" y="110" as="sourcePoint" />
            <mxPoint x="360" y="110" as="targetPoint" />
          </mxGeometry>
        </mxCell>
        <mxCell id="9mdw5v8eH_0LLjEjA2_W-122" value="" style="endArrow=classic;html=1;rounded=0;" edge="1" parent="WIyWlLk6GJQsqaUBKTNV-1">
          <mxGeometry width="50" height="50" relative="1" as="geometry">
            <mxPoint x="330" y="140" as="sourcePoint" />
            <mxPoint x="360" y="140" as="targetPoint" />
          </mxGeometry>
        </mxCell>
        <mxCell id="9mdw5v8eH_0LLjEjA2_W-123" value="" style="endArrow=classic;html=1;rounded=0;" edge="1" parent="WIyWlLk6GJQsqaUBKTNV-1">
          <mxGeometry width="50" height="50" relative="1" as="geometry">
            <mxPoint x="330" y="220" as="sourcePoint" />
            <mxPoint x="360" y="220" as="targetPoint" />
          </mxGeometry>
        </mxCell>
        <mxCell id="9mdw5v8eH_0LLjEjA2_W-124" value="" style="endArrow=classic;html=1;rounded=0;" edge="1" parent="WIyWlLk6GJQsqaUBKTNV-1">
          <mxGeometry width="50" height="50" relative="1" as="geometry">
            <mxPoint x="330" y="260" as="sourcePoint" />
            <mxPoint x="360" y="260" as="targetPoint" />
          </mxGeometry>
        </mxCell>
        <mxCell id="9mdw5v8eH_0LLjEjA2_W-125" value="" style="endArrow=classic;html=1;rounded=0;" edge="1" parent="WIyWlLk6GJQsqaUBKTNV-1">
          <mxGeometry width="50" height="50" relative="1" as="geometry">
            <mxPoint x="330" y="180" as="sourcePoint" />
            <mxPoint x="360" y="180" as="targetPoint" />
          </mxGeometry>
        </mxCell>
        <mxCell id="9mdw5v8eH_0LLjEjA2_W-126" value="" style="endArrow=classic;html=1;rounded=0;" edge="1" parent="WIyWlLk6GJQsqaUBKTNV-1">
          <mxGeometry width="50" height="50" relative="1" as="geometry">
            <mxPoint x="330" y="300" as="sourcePoint" />
            <mxPoint x="360" y="300" as="targetPoint" />
          </mxGeometry>
        </mxCell>
        <mxCell id="9mdw5v8eH_0LLjEjA2_W-127" value="" style="endArrow=classic;html=1;rounded=0;" edge="1" parent="WIyWlLk6GJQsqaUBKTNV-1">
          <mxGeometry width="50" height="50" relative="1" as="geometry">
            <mxPoint x="330" y="420" as="sourcePoint" />
            <mxPoint x="360" y="420" as="targetPoint" />
          </mxGeometry>
        </mxCell>
        <mxCell id="9mdw5v8eH_0LLjEjA2_W-128" value="" style="endArrow=classic;html=1;rounded=0;" edge="1" parent="WIyWlLk6GJQsqaUBKTNV-1">
          <mxGeometry width="50" height="50" relative="1" as="geometry">
            <mxPoint x="330" y="380" as="sourcePoint" />
            <mxPoint x="360" y="380" as="targetPoint" />
          </mxGeometry>
        </mxCell>
        <mxCell id="9mdw5v8eH_0LLjEjA2_W-129" value="" style="endArrow=classic;html=1;rounded=0;" edge="1" parent="WIyWlLk6GJQsqaUBKTNV-1">
          <mxGeometry width="50" height="50" relative="1" as="geometry">
            <mxPoint x="330" y="340" as="sourcePoint" />
            <mxPoint x="360" y="340" as="targetPoint" />
          </mxGeometry>
        </mxCell>
        <mxCell id="9mdw5v8eH_0LLjEjA2_W-130" value="" style="endArrow=classic;html=1;rounded=0;" edge="1" parent="WIyWlLk6GJQsqaUBKTNV-1">
          <mxGeometry width="50" height="50" relative="1" as="geometry">
            <mxPoint x="330" y="460" as="sourcePoint" />
            <mxPoint x="360" y="460" as="targetPoint" />
          </mxGeometry>
        </mxCell>
        <mxCell id="9mdw5v8eH_0LLjEjA2_W-131" value="" style="endArrow=classic;html=1;rounded=0;" edge="1" parent="WIyWlLk6GJQsqaUBKTNV-1">
          <mxGeometry width="50" height="50" relative="1" as="geometry">
            <mxPoint x="330" y="500" as="sourcePoint" />
            <mxPoint x="360" y="500" as="targetPoint" />
          </mxGeometry>
        </mxCell>
        <mxCell id="9mdw5v8eH_0LLjEjA2_W-132" value="" style="rounded=0;whiteSpace=wrap;html=1;" vertex="1" parent="WIyWlLk6GJQsqaUBKTNV-1">
          <mxGeometry x="360" y="100" width="80" height="20" as="geometry" />
        </mxCell>
        <mxCell id="9mdw5v8eH_0LLjEjA2_W-133" value="" style="rounded=0;whiteSpace=wrap;html=1;" vertex="1" parent="WIyWlLk6GJQsqaUBKTNV-1">
          <mxGeometry x="360" y="130" width="80" height="20" as="geometry" />
        </mxCell>
        <mxCell id="9mdw5v8eH_0LLjEjA2_W-134" value="" style="rounded=0;whiteSpace=wrap;html=1;" vertex="1" parent="WIyWlLk6GJQsqaUBKTNV-1">
          <mxGeometry x="360" y="170" width="80" height="20" as="geometry" />
        </mxCell>
        <mxCell id="9mdw5v8eH_0LLjEjA2_W-135" value="" style="rounded=0;whiteSpace=wrap;html=1;" vertex="1" parent="WIyWlLk6GJQsqaUBKTNV-1">
          <mxGeometry x="360" y="210" width="80" height="20" as="geometry" />
        </mxCell>
        <mxCell id="9mdw5v8eH_0LLjEjA2_W-136" value="" style="rounded=0;whiteSpace=wrap;html=1;" vertex="1" parent="WIyWlLk6GJQsqaUBKTNV-1">
          <mxGeometry x="360" y="250" width="80" height="20" as="geometry" />
        </mxCell>
        <mxCell id="9mdw5v8eH_0LLjEjA2_W-137" value="" style="rounded=0;whiteSpace=wrap;html=1;" vertex="1" parent="WIyWlLk6GJQsqaUBKTNV-1">
          <mxGeometry x="360" y="290" width="80" height="20" as="geometry" />
        </mxCell>
        <mxCell id="9mdw5v8eH_0LLjEjA2_W-138" value="" style="rounded=0;whiteSpace=wrap;html=1;" vertex="1" parent="WIyWlLk6GJQsqaUBKTNV-1">
          <mxGeometry x="360" y="330" width="80" height="20" as="geometry" />
        </mxCell>
        <mxCell id="9mdw5v8eH_0LLjEjA2_W-139" value="" style="rounded=0;whiteSpace=wrap;html=1;" vertex="1" parent="WIyWlLk6GJQsqaUBKTNV-1">
          <mxGeometry x="360" y="370" width="80" height="20" as="geometry" />
        </mxCell>
        <mxCell id="9mdw5v8eH_0LLjEjA2_W-140" value="" style="rounded=0;whiteSpace=wrap;html=1;" vertex="1" parent="WIyWlLk6GJQsqaUBKTNV-1">
          <mxGeometry x="360" y="410" width="80" height="20" as="geometry" />
        </mxCell>
        <mxCell id="9mdw5v8eH_0LLjEjA2_W-141" value="" style="rounded=0;whiteSpace=wrap;html=1;" vertex="1" parent="WIyWlLk6GJQsqaUBKTNV-1">
          <mxGeometry x="360" y="450" width="80" height="20" as="geometry" />
        </mxCell>
        <mxCell id="9mdw5v8eH_0LLjEjA2_W-142" value="" style="rounded=0;whiteSpace=wrap;html=1;" vertex="1" parent="WIyWlLk6GJQsqaUBKTNV-1">
          <mxGeometry x="360" y="490" width="80" height="20" as="geometry" />
        </mxCell>
        <mxCell id="9mdw5v8eH_0LLjEjA2_W-143" value="" style="endArrow=classic;html=1;rounded=0;" edge="1" parent="WIyWlLk6GJQsqaUBKTNV-1">
          <mxGeometry width="50" height="50" relative="1" as="geometry">
            <mxPoint x="330" y="540" as="sourcePoint" />
            <mxPoint x="360" y="540" as="targetPoint" />
          </mxGeometry>
        </mxCell>
        <mxCell id="9mdw5v8eH_0LLjEjA2_W-144" value="" style="endArrow=classic;html=1;rounded=0;" edge="1" parent="WIyWlLk6GJQsqaUBKTNV-1">
          <mxGeometry width="50" height="50" relative="1" as="geometry">
            <mxPoint x="330" y="620" as="sourcePoint" />
            <mxPoint x="360" y="620" as="targetPoint" />
          </mxGeometry>
        </mxCell>
        <mxCell id="9mdw5v8eH_0LLjEjA2_W-145" value="" style="endArrow=classic;html=1;rounded=0;" edge="1" parent="WIyWlLk6GJQsqaUBKTNV-1">
          <mxGeometry width="50" height="50" relative="1" as="geometry">
            <mxPoint x="330" y="580" as="sourcePoint" />
            <mxPoint x="360" y="580" as="targetPoint" />
          </mxGeometry>
        </mxCell>
        <mxCell id="9mdw5v8eH_0LLjEjA2_W-146" value="" style="rounded=0;whiteSpace=wrap;html=1;" vertex="1" parent="WIyWlLk6GJQsqaUBKTNV-1">
          <mxGeometry x="360" y="530" width="80" height="20" as="geometry" />
        </mxCell>
        <mxCell id="9mdw5v8eH_0LLjEjA2_W-147" value="" style="rounded=0;whiteSpace=wrap;html=1;" vertex="1" parent="WIyWlLk6GJQsqaUBKTNV-1">
          <mxGeometry x="360" y="570" width="80" height="20" as="geometry" />
        </mxCell>
        <mxCell id="9mdw5v8eH_0LLjEjA2_W-148" value="" style="rounded=0;whiteSpace=wrap;html=1;" vertex="1" parent="WIyWlLk6GJQsqaUBKTNV-1">
          <mxGeometry x="360" y="610" width="80" height="20" as="geometry" />
        </mxCell>
        <mxCell id="9mdw5v8eH_0LLjEjA2_W-149" value="" style="rounded=0;whiteSpace=wrap;html=1;" vertex="1" parent="WIyWlLk6GJQsqaUBKTNV-1">
          <mxGeometry x="360" y="770" width="80" height="20" as="geometry" />
        </mxCell>
        <mxCell id="9mdw5v8eH_0LLjEjA2_W-150" value="" style="rounded=0;whiteSpace=wrap;html=1;" vertex="1" parent="WIyWlLk6GJQsqaUBKTNV-1">
          <mxGeometry x="360" y="820" width="80" height="20" as="geometry" />
        </mxCell>
        <mxCell id="9mdw5v8eH_0LLjEjA2_W-157" value="" style="edgeStyle=orthogonalEdgeStyle;rounded=0;orthogonalLoop=1;jettySize=auto;html=1;" edge="1" parent="WIyWlLk6GJQsqaUBKTNV-1" source="9mdw5v8eH_0LLjEjA2_W-151" target="9mdw5v8eH_0LLjEjA2_W-152">
          <mxGeometry relative="1" as="geometry" />
        </mxCell>
        <mxCell id="9mdw5v8eH_0LLjEjA2_W-151" value="" style="rounded=0;whiteSpace=wrap;html=1;" vertex="1" parent="WIyWlLk6GJQsqaUBKTNV-1">
          <mxGeometry x="360" y="870" width="80" height="20" as="geometry" />
        </mxCell>
        <mxCell id="9mdw5v8eH_0LLjEjA2_W-152" value="" style="rounded=0;whiteSpace=wrap;html=1;" vertex="1" parent="WIyWlLk6GJQsqaUBKTNV-1">
          <mxGeometry x="360" y="920" width="80" height="20" as="geometry" />
        </mxCell>
        <mxCell id="9mdw5v8eH_0LLjEjA2_W-153" value="" style="endArrow=classic;html=1;rounded=0;" edge="1" parent="WIyWlLk6GJQsqaUBKTNV-1">
          <mxGeometry width="50" height="50" relative="1" as="geometry">
            <mxPoint x="330" y="779.5" as="sourcePoint" />
            <mxPoint x="360" y="779.5" as="targetPoint" />
          </mxGeometry>
        </mxCell>
        <mxCell id="9mdw5v8eH_0LLjEjA2_W-154" value="" style="endArrow=classic;html=1;rounded=0;" edge="1" parent="WIyWlLk6GJQsqaUBKTNV-1">
          <mxGeometry width="50" height="50" relative="1" as="geometry">
            <mxPoint x="330" y="829.5" as="sourcePoint" />
            <mxPoint x="360" y="829.5" as="targetPoint" />
          </mxGeometry>
        </mxCell>
        <mxCell id="9mdw5v8eH_0LLjEjA2_W-155" value="" style="endArrow=classic;html=1;rounded=0;" edge="1" parent="WIyWlLk6GJQsqaUBKTNV-1">
          <mxGeometry width="50" height="50" relative="1" as="geometry">
            <mxPoint x="330" y="879.5" as="sourcePoint" />
            <mxPoint x="360" y="879.5" as="targetPoint" />
          </mxGeometry>
        </mxCell>
        <mxCell id="9mdw5v8eH_0LLjEjA2_W-156" value="" style="endArrow=classic;html=1;rounded=0;" edge="1" parent="WIyWlLk6GJQsqaUBKTNV-1">
          <mxGeometry width="50" height="50" relative="1" as="geometry">
            <mxPoint x="330" y="929.5" as="sourcePoint" />
            <mxPoint x="360" y="929.5" as="targetPoint" />
          </mxGeometry>
        </mxCell>
      </root>
    </mxGraphModel>
  </diagram>
</mxfile>
